<svg width="21" height="20" viewBox="0 0 21 20" fill="none" xmlns="http://www.w3.org/2000/svg">
<path d="M9.50374 0.85958C9.80359 -0.0606967 11.1055 -0.0606959 11.4053 0.859581L13.1564 6.23398C13.2906 6.64561 13.6743 6.92418 14.1072 6.92418H19.768C20.7374 6.92418 21.1397 8.16521 20.3547 8.73398L15.7798 12.0486C15.4284 12.3033 15.2813 12.7555 15.4158 13.1682L17.1643 18.5349C17.4644 19.4557 16.4111 20.2227 15.6268 19.6544L11.0413 16.3321C10.6912 16.0784 10.2179 16.0784 9.86782 16.3321L5.28228 19.6544C4.49802 20.2227 3.44473 19.4557 3.74475 18.5348L5.49333 13.1682C5.62778 12.7555 5.4807 12.3033 5.12924 12.0486L0.554366 8.73398C-0.23064 8.16521 0.17169 6.92418 1.14108 6.92418H6.80184C7.23477 6.92418 7.61853 6.64561 7.75264 6.23398L9.50374 0.85958Z" fill="#070707"/>
</svg>
